<svg width="2019" height="585" viewBox="0 0 2019 585" fill="none" xmlns="http://www.w3.org/2000/svg">
<g filter="url(#filter0_d_134_1167)">
<path d="M972.683 282.143C995.185 232.983 1044.82 197.992 1095.18 217.643C1146.67 237.731 1158.86 300.499 1139.18 352.143C1118.84 405.544 1063.12 444.868 1010.68 422.143C958.703 399.615 949.104 333.655 972.683 282.143Z" fill="url(#paint0_linear_134_1167)"/>
</g>
<g filter="url(#filter1_d_134_1167)">
<path d="M730.5 515.58C730.5 482.08 777 212.08 777 212.08C777 212.08 818.126 194.634 825.5 212.08C828.617 219.454 825.5 232.58 825.5 232.58C825.5 232.58 896.606 205.809 924.5 232.58C946.611 253.801 942 309.08 942 309.08C942 309.08 935.105 383.832 901 408.08C867.348 432.006 795.5 415.08 795.5 415.08C795.5 415.08 795.5 459.08 777 515.58C771.349 532.838 730.5 533.739 730.5 515.58Z" fill="#0060BD"/>
</g>
<g filter="url(#filter2_d_134_1167)">
<path d="M546.5 288.08C569.002 238.92 618.633 203.929 669 223.58C720.485 243.668 732.675 306.436 713 358.08C692.656 411.481 636.933 450.805 584.5 428.08C532.52 405.552 522.921 339.592 546.5 288.08Z" fill="url(#paint1_linear_134_1167)"/>
</g>
<g filter="url(#filter3_d_134_1167)">
<path d="M123 422.58C123 422.58 153.5 213.08 192 130.58C219.767 71.08 346.55 133.08 354.5 181.08C361.1 220.93 322.5 274.58 322.5 274.58C322.5 274.58 292 297.58 215 297.58C165.753 297.58 196.675 422.666 176.5 428.58C156.325 434.493 123 422.58 123 422.58Z" fill="url(#paint2_linear_134_1167)"/>
</g>
<path d="M807 371.173L822 283.673C822 283.673 872.986 247.438 894 268.673C918.511 293.443 910.303 349.141 876.5 371.173C852.29 386.953 807 371.173 807 371.173Z" fill="black"/>
<g filter="url(#filter4_d_134_1167)">
<path d="M1729 396.58C1729 334.58 1702 307.58 1678 253.08C1668.49 231.469 1697.89 223.08 1721.5 223.08C1743 223.08 1774.5 339.08 1774.5 339.08C1774.5 339.08 1806.89 259.548 1845.5 223.08C1872.5 197.58 1891 221.971 1891 241.08C1891 253.08 1735.33 513.777 1721.5 529.58C1711 541.58 1683.68 527.132 1678 508.58C1670.5 484.08 1729 443.066 1729 396.58Z" fill="#00AEEF"/>
</g>
<g filter="url(#filter5_d_134_1167)">
<path d="M1413.5 153.58C1416.18 137.982 1429.37 125.615 1445 128.08C1458.25 130.169 1466.18 140.294 1468 153.58C1470.55 172.185 1452.81 192.25 1434.5 188.08C1419.12 184.578 1410.83 169.125 1413.5 153.58Z" fill="#0078D2"/>
</g>
<g filter="url(#filter6_d_134_1167)">
<path d="M1498 437.58C1505.5 384.58 1531.5 270.08 1531.5 270.08H1489C1469.49 270.08 1480 227.58 1498 227.58C1519.28 227.58 1540.5 221.58 1540.5 221.58C1540.5 221.58 1546.01 156.565 1581 134.08C1593.32 126.16 1601.74 112.948 1616 109.58C1640.13 103.88 1652 100.58 1679.5 109.58C1696.94 115.289 1679.5 156.58 1679.5 156.58C1679.5 156.58 1652 165.58 1625 165.58C1596.53 165.58 1592 221.58 1592 221.58C1592 221.58 1649.7 214.81 1658 227.58C1666.3 240.35 1664.36 256.233 1652 260.58C1625 270.08 1581 270.08 1581 270.08C1581 270.08 1564.5 384.58 1549.5 437.58C1544.02 456.932 1495.18 457.494 1498 437.58Z" fill="url(#paint3_linear_134_1167)"/>
</g>
<g filter="url(#filter7_d_134_1167)">
<path d="M1244.5 215.58C1279.11 203.94 1308 206.58 1338 215.58C1352.76 220.008 1344 254.58 1344 254.58C1344 254.58 1333.65 276.08 1321.5 276.08C1294 276.08 1294 260.58 1294 260.58C1294 260.58 1268.5 254.58 1244.5 262.08C1238.3 264.019 1229.93 272.736 1235.5 276.08C1258 289.58 1286.5 307.58 1308 321.08C1319.03 328.007 1325.03 333.621 1329 345.58C1334.07 360.845 1325.56 373.235 1321.5 386.08C1315.54 404.909 1286.5 422.58 1286.5 422.58C1286.5 422.58 1218.5 443.58 1170.5 422.58C1156.51 416.461 1149.39 399.59 1156.5 386.08C1162.07 375.493 1172.04 372.58 1184 372.58C1226 372.58 1244.5 386.08 1268.5 375.58C1277.09 371.823 1274.05 359.133 1268.5 351.58C1250.5 327.08 1205.52 339.251 1191.5 307.58C1181.94 285.974 1179.93 267.678 1191.5 247.08C1203.29 226.089 1221.68 223.256 1244.5 215.58Z" fill="#0078D2"/>
</g>
<g filter="url(#filter8_d_134_1167)">
<path d="M1366.5 413.581C1360.62 408.154 1401.5 217.08 1401.5 217.08C1401.5 217.08 1445 203.58 1445 224.581C1445 301.58 1419.5 413.581 1419.5 413.581C1419.5 413.581 1392.5 437.581 1366.5 413.581Z" fill="#0078D2"/>
</g>
<path d="M587.5 302.58C598.345 278.267 620.563 259.727 646 267.58C672.817 275.86 680.094 307.706 672 334.58C663.44 363.002 635.724 386.183 608 375.58C580.343 365.003 575.438 329.623 587.5 302.58Z" fill="black"/>
<path d="M207.5 259.08L238 167.08C238 167.08 311 163.08 292 217.08C278.418 255.682 207.5 259.08 207.5 259.08Z" fill="black"/>
<g filter="url(#filter9_d_134_1167)">
<path d="M342 428.58C342 358.08 376.5 228.58 376.5 228.58C376.5 228.58 400.999 206.697 415 216.08C426.261 223.627 422 243.08 422 243.08C422 243.08 498.5 198.08 523 216.08C549.908 235.849 539.203 279.806 523 301.58C509.316 319.969 484 301.58 484 301.58C484 301.58 478 312.08 478 269.58C478 237.933 419.604 274.372 415 301.58C404 366.58 395.5 432.08 395.5 432.08C395.5 432.08 342 442.08 342 428.58Z" fill="#0048A8"/>
</g>
<path d="M1013.68 296.643C1024.53 272.33 1046.75 253.79 1072.18 261.643C1099 269.923 1106.28 301.769 1098.18 328.643C1089.62 357.064 1061.91 380.246 1034.18 369.643C1006.53 359.066 1001.62 323.686 1013.68 296.643Z" fill="black"/>
<defs>
<filter id="filter0_d_134_1167" x="950.5" y="202.08" width="227.586" height="256.636" filterUnits="userSpaceOnUse" color-interpolation-filters="sRGB">
<feFlood flood-opacity="0" result="BackgroundImageFix"/>
<feColorMatrix in="SourceAlpha" type="matrix" values="0 0 0 0 0 0 0 0 0 0 0 0 0 0 0 0 0 0 127 0" result="hardAlpha"/>
<feOffset dx="10" dy="10"/>
<feGaussianBlur stdDeviation="10"/>
<feComposite in2="hardAlpha" operator="out"/>
<feColorMatrix type="matrix" values="0 0 0 0 1 0 0 0 0 1 0 0 0 0 1 0 0 0 1 0"/>
<feBlend mode="normal" in2="BackgroundImageFix" result="effect1_dropShadow_134_1167"/>
<feBlend mode="normal" in="SourceGraphic" in2="effect1_dropShadow_134_1167" result="shape"/>
</filter>
<filter id="filter1_d_134_1167" x="720.5" y="194.326" width="251.899" height="364.537" filterUnits="userSpaceOnUse" color-interpolation-filters="sRGB">
<feFlood flood-opacity="0" result="BackgroundImageFix"/>
<feColorMatrix in="SourceAlpha" type="matrix" values="0 0 0 0 0 0 0 0 0 0 0 0 0 0 0 0 0 0 127 0" result="hardAlpha"/>
<feOffset dx="10" dy="10"/>
<feGaussianBlur stdDeviation="10"/>
<feComposite in2="hardAlpha" operator="out"/>
<feColorMatrix type="matrix" values="0 0 0 0 1 0 0 0 0 1 0 0 0 0 1 0 0 0 1 0"/>
<feBlend mode="normal" in2="BackgroundImageFix" result="effect1_dropShadow_134_1167"/>
<feBlend mode="normal" in="SourceGraphic" in2="effect1_dropShadow_134_1167" result="shape"/>
</filter>
<filter id="filter2_d_134_1167" x="524.317" y="208.017" width="227.586" height="256.636" filterUnits="userSpaceOnUse" color-interpolation-filters="sRGB">
<feFlood flood-opacity="0" result="BackgroundImageFix"/>
<feColorMatrix in="SourceAlpha" type="matrix" values="0 0 0 0 0 0 0 0 0 0 0 0 0 0 0 0 0 0 127 0" result="hardAlpha"/>
<feOffset dx="10" dy="10"/>
<feGaussianBlur stdDeviation="10"/>
<feComposite in2="hardAlpha" operator="out"/>
<feColorMatrix type="matrix" values="0 0 0 0 1 0 0 0 0 1 0 0 0 0 1 0 0 0 1 0"/>
<feBlend mode="normal" in2="BackgroundImageFix" result="effect1_dropShadow_134_1167"/>
<feBlend mode="normal" in="SourceGraphic" in2="effect1_dropShadow_134_1167" result="shape"/>
</filter>
<filter id="filter3_d_134_1167" x="113" y="96.1631" width="272.259" height="364.064" filterUnits="userSpaceOnUse" color-interpolation-filters="sRGB">
<feFlood flood-opacity="0" result="BackgroundImageFix"/>
<feColorMatrix in="SourceAlpha" type="matrix" values="0 0 0 0 0 0 0 0 0 0 0 0 0 0 0 0 0 0 127 0" result="hardAlpha"/>
<feOffset dx="10" dy="10"/>
<feGaussianBlur stdDeviation="10"/>
<feComposite in2="hardAlpha" operator="out"/>
<feColorMatrix type="matrix" values="0 0 0 0 1 0 0 0 0 1 0 0 0 0 1 0 0 0 1 0"/>
<feBlend mode="normal" in2="BackgroundImageFix" result="effect1_dropShadow_134_1167"/>
<feBlend mode="normal" in="SourceGraphic" in2="effect1_dropShadow_134_1167" result="shape"/>
</filter>
<filter id="filter4_d_134_1167" x="1666.17" y="202.104" width="254.835" height="361.867" filterUnits="userSpaceOnUse" color-interpolation-filters="sRGB">
<feFlood flood-opacity="0" result="BackgroundImageFix"/>
<feColorMatrix in="SourceAlpha" type="matrix" values="0 0 0 0 0 0 0 0 0 0 0 0 0 0 0 0 0 0 127 0" result="hardAlpha"/>
<feOffset dx="10" dy="10"/>
<feGaussianBlur stdDeviation="10"/>
<feComposite in2="hardAlpha" operator="out"/>
<feColorMatrix type="matrix" values="0 0 0 0 1 0 0 0 0 1 0 0 0 0 1 0 0 0 1 0"/>
<feBlend mode="normal" in2="BackgroundImageFix" result="effect1_dropShadow_134_1167"/>
<feBlend mode="normal" in="SourceGraphic" in2="effect1_dropShadow_134_1167" result="shape"/>
</filter>
<filter id="filter5_d_134_1167" x="1403" y="117.766" width="95.2417" height="100.87" filterUnits="userSpaceOnUse" color-interpolation-filters="sRGB">
<feFlood flood-opacity="0" result="BackgroundImageFix"/>
<feColorMatrix in="SourceAlpha" type="matrix" values="0 0 0 0 0 0 0 0 0 0 0 0 0 0 0 0 0 0 127 0" result="hardAlpha"/>
<feOffset dx="10" dy="10"/>
<feGaussianBlur stdDeviation="10"/>
<feComposite in2="hardAlpha" operator="out"/>
<feColorMatrix type="matrix" values="0 0 0 0 1 0 0 0 0 1 0 0 0 0 1 0 0 0 1 0"/>
<feBlend mode="normal" in2="BackgroundImageFix" result="effect1_dropShadow_134_1167"/>
<feBlend mode="normal" in="SourceGraphic" in2="effect1_dropShadow_134_1167" result="shape"/>
</filter>
<filter id="filter6_d_134_1167" x="1468.53" y="94" width="248.727" height="388.305" filterUnits="userSpaceOnUse" color-interpolation-filters="sRGB">
<feFlood flood-opacity="0" result="BackgroundImageFix"/>
<feColorMatrix in="SourceAlpha" type="matrix" values="0 0 0 0 0 0 0 0 0 0 0 0 0 0 0 0 0 0 127 0" result="hardAlpha"/>
<feOffset dx="10" dy="10"/>
<feGaussianBlur stdDeviation="10"/>
<feComposite in2="hardAlpha" operator="out"/>
<feColorMatrix type="matrix" values="0 0 0 0 1 0 0 0 0 1 0 0 0 0 1 0 0 0 1 0"/>
<feBlend mode="normal" in2="BackgroundImageFix" result="effect1_dropShadow_134_1167"/>
<feBlend mode="normal" in="SourceGraphic" in2="effect1_dropShadow_134_1167" result="shape"/>
</filter>
<filter id="filter7_d_134_1167" x="1143.71" y="197.809" width="232.872" height="264.105" filterUnits="userSpaceOnUse" color-interpolation-filters="sRGB">
<feFlood flood-opacity="0" result="BackgroundImageFix"/>
<feColorMatrix in="SourceAlpha" type="matrix" values="0 0 0 0 0 0 0 0 0 0 0 0 0 0 0 0 0 0 127 0" result="hardAlpha"/>
<feOffset dx="10" dy="10"/>
<feGaussianBlur stdDeviation="10"/>
<feComposite in2="hardAlpha" operator="out"/>
<feColorMatrix type="matrix" values="0 0 0 0 1 0 0 0 0 1 0 0 0 0 1 0 0 0 1 0"/>
<feBlend mode="normal" in2="BackgroundImageFix" result="effect1_dropShadow_134_1167"/>
<feBlend mode="normal" in="SourceGraphic" in2="effect1_dropShadow_134_1167" result="shape"/>
</filter>
<filter id="filter8_d_134_1167" x="1355.92" y="202.809" width="119.078" height="251.439" filterUnits="userSpaceOnUse" color-interpolation-filters="sRGB">
<feFlood flood-opacity="0" result="BackgroundImageFix"/>
<feColorMatrix in="SourceAlpha" type="matrix" values="0 0 0 0 0 0 0 0 0 0 0 0 0 0 0 0 0 0 127 0" result="hardAlpha"/>
<feOffset dx="10" dy="10"/>
<feGaussianBlur stdDeviation="10"/>
<feComposite in2="hardAlpha" operator="out"/>
<feColorMatrix type="matrix" values="0 0 0 0 1 0 0 0 0 1 0 0 0 0 1 0 0 0 1 0"/>
<feBlend mode="normal" in2="BackgroundImageFix" result="effect1_dropShadow_134_1167"/>
<feBlend mode="normal" in="SourceGraphic" in2="effect1_dropShadow_134_1167" result="shape"/>
</filter>
<filter id="filter9_d_134_1167" x="332" y="201.83" width="237.409" height="263.814" filterUnits="userSpaceOnUse" color-interpolation-filters="sRGB">
<feFlood flood-opacity="0" result="BackgroundImageFix"/>
<feColorMatrix in="SourceAlpha" type="matrix" values="0 0 0 0 0 0 0 0 0 0 0 0 0 0 0 0 0 0 127 0" result="hardAlpha"/>
<feOffset dx="10" dy="10"/>
<feGaussianBlur stdDeviation="10"/>
<feComposite in2="hardAlpha" operator="out"/>
<feColorMatrix type="matrix" values="0 0 0 0 1 0 0 0 0 1 0 0 0 0 1 0 0 0 1 0"/>
<feBlend mode="normal" in2="BackgroundImageFix" result="effect1_dropShadow_134_1167"/>
<feBlend mode="normal" in="SourceGraphic" in2="effect1_dropShadow_134_1167" result="shape"/>
</filter>
<linearGradient id="paint0_linear_134_1167" x1="960.5" y1="320.398" x2="1148.09" y2="320.398" gradientUnits="userSpaceOnUse">
<stop stop-color="#0060BD"/>
<stop offset="1" stop-color="#0078D2"/>
</linearGradient>
<linearGradient id="paint1_linear_134_1167" x1="721.904" y1="326.335" x2="534.317" y2="326.335" gradientUnits="userSpaceOnUse">
<stop stop-color="#0048A8"/>
<stop offset="1" stop-color="#0060BD"/>
</linearGradient>
<linearGradient id="paint2_linear_134_1167" x1="123" y1="268.195" x2="355.259" y2="268.195" gradientUnits="userSpaceOnUse">
<stop stop-color="#003092"/>
<stop offset="1" stop-color="#0048A8"/>
</linearGradient>
<linearGradient id="paint3_linear_134_1167" x1="1687.25" y1="278.153" x2="1478.53" y2="278.153" gradientUnits="userSpaceOnUse">
<stop stop-color="#0078D2"/>
<stop offset="1" stop-color="#00AEEF"/>
</linearGradient>
</defs>
</svg>
